<svg width="270" height="90" viewBox="0 0 270 90" fill="none" xmlns="http://www.w3.org/2000/svg">
<g clip-path="url(#clip0_1_4)">
<rect width="270" height="90" rx="40" fill="white"/>
<rect width="270" height="45" fill="#F50E0E"/>
<rect y="45" width="270" height="45" fill="black"/>
<path d="M65.8623 53.08C66.209 53.08 66.4757 53.24 66.6623 53.56C66.8757 53.88 66.9823 54.32 66.9823 54.88C66.9823 55.92 66.729 56.7467 66.2223 57.36C64.729 59.1467 63.2757 60.4 61.8623 61.12C60.4757 61.84 58.7957 62.2 56.8223 62.2C55.4357 62.2 54.1557 62.0267 52.9823 61.68C51.809 61.3333 50.3823 60.8133 48.7023 60.12C47.1823 59.4533 45.7157 58.9067 44.3023 58.48C42.9423 60.96 40.9023 62.2 38.1823 62.2C36.689 62.2 35.5023 61.8667 34.6223 61.2C33.7157 60.5067 33.2623 59.6267 33.2623 58.56C33.2623 57.2533 33.889 56.1733 35.1423 55.32C36.3957 54.44 38.0623 54 40.1423 54H40.6623L41.3823 42.36C41.5423 39.6933 42.0223 37.4933 42.8223 35.76C43.6223 34.0267 44.729 32.5467 46.1423 31.32C47.369 30.2533 48.769 29.4533 50.3423 28.92C51.9157 28.36 53.5823 28.08 55.3423 28.08C58.2223 28.08 60.4357 28.8267 61.9823 30.32C63.529 31.8133 64.3023 33.76 64.3023 36.16C64.3023 37.7867 64.009 39.1067 63.4223 40.12C62.8357 41.1067 62.0223 41.6 60.9823 41.6C60.2357 41.6 59.649 41.4267 59.2223 41.08C58.7957 40.7067 58.5823 40.1867 58.5823 39.52C58.5823 39.28 58.6357 38.84 58.7423 38.2C58.9023 37.4533 58.9823 36.7867 58.9823 36.2C58.9823 35.08 58.649 34.2 57.9823 33.56C57.3423 32.8933 56.3557 32.56 55.0223 32.56C52.6757 32.56 50.8623 33.3333 49.5823 34.88C48.3023 36.4 47.489 38.8 47.1423 42.08L46.2223 51.16C46.089 52.44 45.9157 53.5467 45.7023 54.48C47.409 54.7733 49.5423 55.24 52.1023 55.88C53.5957 56.2533 54.7423 56.52 55.5423 56.68C56.3423 56.84 57.049 56.92 57.6623 56.92C59.209 56.92 60.529 56.6667 61.6223 56.16C62.7423 55.6267 63.7957 54.7867 64.7823 53.64C65.1023 53.2667 65.4623 53.08 65.8623 53.08ZM68.6564 62.2C67.0031 62.2 65.6831 61.6 64.6964 60.4C63.7097 59.2 63.2164 57.6267 63.2164 55.68C63.2164 53.5467 63.7097 51.5333 64.6964 49.64C65.6831 47.72 66.9897 46.1867 68.6164 45.04C70.2697 43.8667 72.0164 43.28 73.8564 43.28C74.4431 43.28 74.8297 43.4 75.0164 43.64C75.2297 43.8533 75.4031 44.2533 75.5364 44.84C76.0964 44.7333 76.6831 44.68 77.2964 44.68C78.6031 44.68 79.2564 45.1467 79.2564 46.08C79.2564 46.64 79.0564 47.9733 78.6564 50.08C78.0431 53.1467 77.7364 55.28 77.7364 56.48C77.7364 56.88 77.8297 57.2 78.0164 57.44C78.2297 57.68 78.4964 57.8 78.8164 57.8C79.3231 57.8 79.9364 57.48 80.6564 56.84C81.3764 56.1733 82.3497 55.1067 83.5764 53.64C83.8964 53.2667 84.2564 53.08 84.6564 53.08C85.0031 53.08 85.2697 53.24 85.4564 53.56C85.6697 53.88 85.7764 54.32 85.7764 54.88C85.7764 55.9467 85.5231 56.7733 85.0164 57.36C83.9231 58.72 82.7631 59.8667 81.5364 60.8C80.3097 61.7333 79.1231 62.2 77.9764 62.2C77.0964 62.2 76.2831 61.9067 75.5364 61.32C74.8164 60.7067 74.2697 59.88 73.8964 58.84C72.5097 61.08 70.7631 62.2 68.6564 62.2ZM70.0964 58.16C70.6831 58.16 71.2431 57.8133 71.7764 57.12C72.3097 56.4267 72.6964 55.5067 72.9364 54.36L74.4164 47C73.2964 47.0267 72.2564 47.4533 71.2964 48.28C70.3631 49.08 69.6164 50.1467 69.0564 51.48C68.4964 52.8133 68.2164 54.2267 68.2164 55.72C68.2164 56.5467 68.3764 57.16 68.6964 57.56C69.0431 57.96 69.5097 58.16 70.0964 58.16ZM102.716 49.84C102.796 49.8133 102.929 49.8 103.116 49.8C103.516 49.8 103.823 49.9333 104.036 50.2C104.249 50.4667 104.356 50.8267 104.356 51.28C104.356 52.1067 104.196 52.76 103.876 53.24C103.556 53.6933 103.076 54.0267 102.436 54.24C101.209 54.64 99.9028 54.84 98.5161 54.84C97.3428 54.84 96.2361 54.68 95.1961 54.36C94.4228 55.6133 93.5694 56.9067 92.6361 58.24C91.5694 59.76 90.6494 60.8 89.8761 61.36C89.1028 61.92 88.2228 62.2 87.2361 62.2C86.1428 62.2 85.2761 61.7733 84.6361 60.92C84.0228 60.0667 83.6361 58.72 83.4761 56.88C83.1561 53.1467 82.9961 49.88 82.9961 47.08V45.68C83.0228 44.8 83.2628 44.1867 83.7161 43.84C84.1694 43.4933 84.8494 43.32 85.7561 43.32C86.4494 43.32 86.9561 43.48 87.2761 43.8C87.6228 44.0933 87.7961 44.6 87.7961 45.32C87.7961 48.3867 87.9828 52.3733 88.3561 57.28C89.9561 54.9067 91.1561 53.0133 91.9561 51.6C91.5561 50.8267 91.3561 49.9067 91.3561 48.84C91.3561 47.9333 91.5561 47.0533 91.9561 46.2C92.3561 45.3467 92.9028 44.6533 93.5961 44.12C94.2894 43.5867 95.0761 43.32 95.9561 43.32C96.7294 43.32 97.3561 43.6 97.8361 44.16C98.3161 44.6933 98.5561 45.48 98.5561 46.52C98.5561 47.72 98.2361 49.0933 97.5961 50.64C98.6094 50.5867 99.9561 50.3867 101.636 50.04L102.716 49.84ZM105.805 62.2C104.152 62.2 102.832 61.6 101.845 60.4C100.858 59.2 100.365 57.6267 100.365 55.68C100.365 53.5467 100.858 51.5333 101.845 49.64C102.832 47.72 104.138 46.1867 105.765 45.04C107.418 43.8667 109.165 43.28 111.005 43.28C111.592 43.28 111.978 43.4 112.165 43.64C112.378 43.8533 112.552 44.2533 112.685 44.84C113.245 44.7333 113.832 44.68 114.445 44.68C115.752 44.68 116.405 45.1467 116.405 46.08C116.405 46.64 116.205 47.9733 115.805 50.08C115.192 53.1467 114.885 55.28 114.885 56.48C114.885 56.88 114.978 57.2 115.165 57.44C115.378 57.68 115.645 57.8 115.965 57.8C116.472 57.8 117.085 57.48 117.805 56.84C118.525 56.1733 119.498 55.1067 120.725 53.64C121.045 53.2667 121.405 53.08 121.805 53.08C122.152 53.08 122.418 53.24 122.605 53.56C122.818 53.88 122.925 54.32 122.925 54.88C122.925 55.9467 122.672 56.7733 122.165 57.36C121.072 58.72 119.912 59.8667 118.685 60.8C117.458 61.7333 116.272 62.2 115.125 62.2C114.245 62.2 113.432 61.9067 112.685 61.32C111.965 60.7067 111.418 59.88 111.045 58.84C109.658 61.08 107.912 62.2 105.805 62.2ZM107.245 58.16C107.832 58.16 108.392 57.8133 108.925 57.12C109.458 56.4267 109.845 55.5067 110.085 54.36L111.565 47C110.445 47.0267 109.405 47.4533 108.445 48.28C107.512 49.08 106.765 50.1467 106.205 51.48C105.645 52.8133 105.365 54.2267 105.365 55.72C105.365 56.5467 105.525 57.16 105.845 57.56C106.192 57.96 106.658 58.16 107.245 58.16ZM127.114 63.08C125.727 63.08 124.661 62.76 123.914 62.12C123.194 61.48 122.834 60.76 122.834 59.96C122.834 59.2667 123.087 58.6667 123.594 58.16C124.101 57.6533 124.847 57.4 125.834 57.4C126.181 57.4 126.581 57.44 127.034 57.52C127.514 57.5733 127.874 57.6133 128.114 57.64C128.087 56.9467 127.927 56.2933 127.634 55.68C127.367 55.0667 127.021 54.48 126.594 53.92C126.167 53.3333 125.767 52.8267 125.394 52.4C124.567 53.9733 123.741 55.28 122.914 56.32C122.114 57.36 121.234 58.3467 120.274 59.28C119.794 59.76 119.287 60 118.754 60C118.327 60 117.981 59.8533 117.714 59.56C117.447 59.24 117.314 58.8533 117.314 58.4C117.314 57.8667 117.501 57.3733 117.874 56.92L118.394 56.28C119.861 54.4667 120.967 52.9733 121.714 51.8C122.167 51.0267 122.701 50 123.314 48.72C123.927 47.4133 124.527 46.0667 125.114 44.68C125.621 43.5067 126.674 42.92 128.274 42.92C129.021 42.92 129.541 42.9867 129.834 43.12C130.127 43.2533 130.274 43.4667 130.274 43.76C130.274 43.92 130.221 44.1733 130.114 44.52C130.007 44.8667 129.861 45.2133 129.674 45.56C129.194 46.52 128.954 47.3333 128.954 48C128.954 48.4 129.087 48.84 129.354 49.32C129.647 49.8 130.087 50.4 130.674 51.12C131.527 52.24 132.167 53.2 132.594 54C133.047 54.7733 133.274 55.6267 133.274 56.56C133.274 56.8267 133.247 57.2 133.194 57.68C134.501 57.1733 136.034 55.8267 137.794 53.64C138.114 53.2667 138.474 53.08 138.874 53.08C139.221 53.08 139.487 53.24 139.674 53.56C139.887 53.88 139.994 54.32 139.994 54.88C139.994 55.8933 139.741 56.72 139.234 57.36C137.901 59.0133 136.621 60.1467 135.394 60.76C134.194 61.3467 132.701 61.6667 130.914 61.72C129.847 62.6267 128.581 63.08 127.114 63.08ZM150.904 43.36C151.758 43.36 152.398 43.5867 152.824 44.04C153.278 44.4667 153.504 45.1067 153.504 45.96C153.504 46.6533 153.358 47.96 153.064 49.88C152.798 51.5067 152.584 53.0533 152.424 54.52C152.264 55.96 152.184 57.5733 152.184 59.36C152.184 60.3733 151.971 61.1067 151.544 61.56C151.144 61.9867 150.478 62.2 149.544 62.2C148.664 62.2 148.024 61.9733 147.624 61.52C147.224 61.0667 147.024 60.3867 147.024 59.48C147.024 58.4133 147.211 56.6533 147.584 54.2C147.904 52.0667 148.064 50.7067 148.064 50.12C148.064 49.6933 147.918 49.48 147.624 49.48C147.278 49.48 146.784 49.9333 146.144 50.84C145.504 51.72 144.864 52.8933 144.224 54.36C143.584 55.8267 143.064 57.3733 142.664 59C142.371 60.2533 142.024 61.1067 141.624 61.56C141.251 61.9867 140.651 62.2 139.824 62.2C138.998 62.2 138.384 61.9067 137.984 61.32C137.611 60.7067 137.358 59.7733 137.224 58.52C137.091 57.2667 137.024 55.4267 137.024 53C137.024 48.8933 137.438 44.6133 138.264 40.16C139.118 35.7067 140.358 31.9733 141.984 28.96C143.638 25.92 145.611 24.4 147.904 24.4C149.131 24.4 150.118 24.9333 150.864 26C151.638 27.04 152.024 28.4 152.024 30.08C152.024 32.7733 151.238 35.5733 149.664 38.48C148.091 41.36 145.531 44.7333 141.984 48.6C141.904 49.9867 141.864 51.4133 141.864 52.88C142.744 50.6133 143.718 48.7733 144.784 47.36C145.878 45.92 146.944 44.8933 147.984 44.28C149.051 43.6667 150.024 43.36 150.904 43.36ZM147.064 28.36C146.584 28.36 146.051 29.0533 145.464 30.44C144.878 31.8 144.304 33.6533 143.744 36C143.211 38.32 142.771 40.8533 142.424 43.6C144.078 41.6533 145.438 39.5333 146.504 37.24C147.598 34.9467 148.144 32.8667 148.144 31C148.144 30.1467 148.051 29.4933 147.864 29.04C147.678 28.5867 147.411 28.36 147.064 28.36ZM199.74 36.4C199.74 38.6667 198.94 40.6267 197.34 42.28C195.74 43.9067 193.406 45.08 190.34 45.8C191.993 46.2533 193.246 47 194.1 48.04C194.953 49.0533 195.38 50.2267 195.38 51.56C195.38 53.6667 194.713 55.4933 193.38 57.04C192.073 58.5867 190.153 59.7867 187.62 60.64C185.086 61.4667 182.033 61.88 178.46 61.88C177.126 61.88 176.06 61.84 175.26 61.76C175.233 62.5067 174.913 63.0667 174.3 63.44C173.686 63.8133 172.9 64 171.94 64C170.98 64 170.313 63.7867 169.94 63.36C169.593 62.9333 169.446 62.3067 169.5 61.48C169.74 57.7467 170.206 53.84 170.9 49.76C171.593 45.6533 172.473 41.6933 173.54 37.88C173.726 37.2133 174.1 36.7467 174.66 36.48C175.22 36.2133 175.953 36.08 176.86 36.08C178.486 36.08 179.3 36.5333 179.3 37.44C179.3 37.8133 179.22 38.24 179.06 38.72C178.366 40.8 177.673 43.6267 176.98 47.2C176.286 50.7467 175.793 54.1333 175.5 57.36C176.78 57.4667 177.82 57.52 178.62 57.52C182.353 57.52 185.086 56.9867 186.82 55.92C188.58 54.8267 189.46 53.44 189.46 51.76C189.46 50.5867 188.953 49.6 187.94 48.8C186.953 48 185.286 47.56 182.94 47.48C182.406 47.4533 182.033 47.32 181.82 47.08C181.606 46.84 181.5 46.4533 181.5 45.92C181.5 45.1467 181.66 44.52 181.98 44.04C182.3 43.56 182.886 43.3067 183.74 43.28C185.633 43.2267 187.34 42.9467 188.86 42.44C190.406 41.9333 191.62 41.2267 192.5 40.32C193.38 39.3867 193.82 38.3067 193.82 37.08C193.82 35.5333 193.06 34.32 191.54 33.44C190.02 32.5333 187.686 32.08 184.54 32.08C181.686 32.08 178.926 32.4533 176.26 33.2C173.593 33.92 171.326 34.84 169.46 35.96C168.606 36.4667 167.886 36.72 167.3 36.72C166.82 36.72 166.446 36.56 166.18 36.24C165.94 35.8933 165.82 35.4667 165.82 34.96C165.82 34.2933 165.953 33.72 166.22 33.24C166.513 32.76 167.193 32.2133 168.26 31.6C170.5 30.32 173.126 29.32 176.14 28.6C179.153 27.88 182.233 27.52 185.38 27.52C190.206 27.52 193.806 28.3333 196.18 29.96C198.553 31.5867 199.74 33.7333 199.74 36.4ZM203.344 62.2C201.691 62.2 200.371 61.6 199.384 60.4C198.397 59.2 197.904 57.6267 197.904 55.68C197.904 53.5467 198.397 51.5333 199.384 49.64C200.371 47.72 201.677 46.1867 203.304 45.04C204.957 43.8667 206.704 43.28 208.544 43.28C209.131 43.28 209.517 43.4 209.704 43.64C209.917 43.8533 210.091 44.2533 210.224 44.84C210.784 44.7333 211.371 44.68 211.984 44.68C213.291 44.68 213.944 45.1467 213.944 46.08C213.944 46.64 213.744 47.9733 213.344 50.08C212.731 53.1467 212.424 55.28 212.424 56.48C212.424 56.88 212.517 57.2 212.704 57.44C212.917 57.68 213.184 57.8 213.504 57.8C214.011 57.8 214.624 57.48 215.344 56.84C216.064 56.1733 217.037 55.1067 218.264 53.64C218.584 53.2667 218.944 53.08 219.344 53.08C219.691 53.08 219.957 53.24 220.144 53.56C220.357 53.88 220.464 54.32 220.464 54.88C220.464 55.9467 220.211 56.7733 219.704 57.36C218.611 58.72 217.451 59.8667 216.224 60.8C214.997 61.7333 213.811 62.2 212.664 62.2C211.784 62.2 210.971 61.9067 210.224 61.32C209.504 60.7067 208.957 59.88 208.584 58.84C207.197 61.08 205.451 62.2 203.344 62.2ZM204.784 58.16C205.371 58.16 205.931 57.8133 206.464 57.12C206.997 56.4267 207.384 55.5067 207.624 54.36L209.104 47C207.984 47.0267 206.944 47.4533 205.984 48.28C205.051 49.08 204.304 50.1467 203.744 51.48C203.184 52.8133 202.904 54.2267 202.904 55.72C202.904 56.5467 203.064 57.16 203.384 57.56C203.731 57.96 204.197 58.16 204.784 58.16ZM233.373 48.84C233.96 48.84 234.453 49.0533 234.853 49.48C235.28 49.88 235.493 50.3867 235.493 51C235.493 51.3467 235.413 51.72 235.253 52.12C234.826 53.1067 234.226 53.9333 233.453 54.6C232.68 55.2667 231.826 55.6 230.893 55.6C230.146 55.6 229.506 55.3333 228.973 54.8C228.466 54.2667 228.213 53.5467 228.213 52.64C228.213 52.1333 228.24 51.5867 228.293 51C228.346 50.5733 228.373 50.28 228.373 50.12C228.373 49.9067 228.32 49.7467 228.213 49.64C228.133 49.5333 228.026 49.48 227.893 49.48C227.52 49.48 227.013 49.9333 226.373 50.84C225.733 51.72 225.093 52.8933 224.453 54.36C223.813 55.8267 223.293 57.3733 222.893 59C222.6 60.28 222.266 61.1333 221.893 61.56C221.52 61.9867 220.906 62.2 220.053 62.2C219.04 62.2 218.32 61.6667 217.893 60.6C217.493 59.5333 217.293 57.8267 217.293 55.48C217.293 52.0133 217.786 48.72 218.773 45.6C219.013 44.8267 219.4 44.2667 219.933 43.92C220.493 43.5467 221.266 43.36 222.253 43.36C222.786 43.36 223.16 43.4267 223.373 43.56C223.586 43.6933 223.693 43.9467 223.693 44.32C223.693 44.7467 223.493 45.7067 223.093 47.2C222.826 48.2667 222.613 49.2 222.453 50C222.293 50.8 222.16 51.7867 222.053 52.96C222.933 50.6667 223.92 48.8 225.013 47.36C226.106 45.92 227.173 44.8933 228.213 44.28C229.253 43.6667 230.2 43.36 231.053 43.36C231.826 43.36 232.413 43.5867 232.813 44.04C233.24 44.4667 233.453 45.1067 233.453 45.96C233.453 46.4667 233.306 47.4267 233.013 48.84H233.373Z" fill="#E0CB13"/>
</g>
<defs>
<clipPath id="clip0_1_4">
<rect width="270" height="90" rx="40" fill="white"/>
</clipPath>
</defs>
</svg>
