<svg width="30" height="30" viewBox="0 0 30 30" fill="none" xmlns="http://www.w3.org/2000/svg">
<path d="M6.42051 15.955L10.1932 11.3583C10.5782 10.8633 10.7707 10.6158 10.8716 10.3382C10.9608 10.0926 10.9978 9.83105 10.98 9.57031C10.9599 9.27566 10.8435 8.98454 10.6106 8.4023L9.7222 6.18137C9.37755 5.31974 9.20521 4.88891 8.90794 4.60653C8.64597 4.35769 8.31771 4.18985 7.96261 4.12318C7.55963 4.0475 7.10947 4.16005 6.20916 4.38513L3.75 5C3.75 17.5 12.4996 26.25 25 26.25L25.6145 23.7905C25.8396 22.8901 25.9521 22.44 25.8765 22.037C25.8098 21.682 25.642 21.3536 25.3931 21.0917C25.1108 20.7944 24.6799 20.6221 23.8182 20.2775L21.8364 19.4846C21.1721 19.219 20.84 19.0861 20.5089 19.076C20.2161 19.067 19.9255 19.1266 19.66 19.2501C19.3596 19.39 19.1068 19.6429 18.6009 20.1487L14.7843 23.9666M16.2496 8.75C17.4706 8.98821 18.5926 9.58532 19.4722 10.4649C20.3519 11.3445 20.949 12.4666 21.1871 13.6875M16.2496 3.75C18.7862 4.0318 21.1516 5.16771 22.9575 6.97126C24.7632 8.7748 25.9021 11.1388 26.1871 13.675" stroke="black" stroke-width="2" stroke-linecap="round" stroke-linejoin="round"/>
</svg>
