<?xml version="1.0" encoding="utf-8"?>
<svg fill="#000000" width="800px" height="800px" viewBox="0 0 24 24" xmlns="http://www.w3.org/2000/svg">
  <path d="M 1.537 9.488 C 1.43 9.869 1.558 10.277 1.863 10.529 L 6.668 14.492 L 5.153 21.282 C 4.985 22.033 5.693 22.685 6.428 22.455 C 6.53 22.423 6.626 22.375 6.713 22.312 L 12 18.509 L 17.287 22.309 C 17.912 22.759 18.789 22.363 18.866 21.597 C 18.877 21.491 18.87 21.383 18.847 21.279 L 17.332 14.489 L 22.137 10.526 C 22.731 10.036 22.572 9.087 21.851 8.818 C 21.784 8.793 21.715 8.775 21.645 8.765 L 15.828 7.916 L 12.9 2.053 C 12.496 1.375 11.514 1.375 11.11 2.053 L 8.172 7.919 L 2.355 8.768 C 1.964 8.825 1.643 9.107 1.537 9.488 Z M 12.281 11.44 C 12.605 11.393 9.582 9.573 9.728 9.281 C 9.748 9.39 14.603 18.948 12 4.736 L 10.919 11.056 C 11.065 11.348 11.801 12.457 12.125 12.504 L 19.122 10.423 L 10.055 10.676 C 9.765 10.916 12.198 14.726 12.28 15.093 L 16.323 19.155 L 12.051 14.164 C 11.702 13.913 12.229 14.509 11.88 14.76 L 11.572 15.128 L 14.15 14.556 C 14.232 14.189 12.388 12.245 12.098 12.005 L 4.876 10.421 L 12.281 11.44 Z" style="stroke: rgb(0, 0, 0);"/>
</svg>